<svg width="23" height="14" viewBox="0 0 23 14" fill="none" xmlns="http://www.w3.org/2000/svg">
<path d="M6.65743 0.168387C7.2998 0.168387 7.87817 0.222905 8.40677 0.339053C8.93299 0.450461 9.38336 0.635349 9.76262 0.891349C10.1371 1.14735 10.4287 1.48631 10.6373 1.91535C10.8411 2.33728 10.9431 2.86587 10.9431 3.48928C10.9431 4.16483 10.789 4.72898 10.4832 5.17935C10.1751 5.62972 9.71995 5.9995 9.11313 6.28631C9.93802 6.52335 10.5496 6.94054 10.9549 7.5355C11.3626 8.13283 11.5617 8.84868 11.5617 9.68779C11.5617 10.3681 11.4314 10.9536 11.1706 11.4466C10.9075 11.9444 10.5496 12.3497 10.1087 12.6602C9.66543 12.9755 9.15343 13.2054 8.58217 13.3548C8.01802 13.5041 7.43017 13.5799 6.8281 13.5799H0.326172V0.166016H6.65032L6.65743 0.168387ZM6.2758 5.58705C6.79965 5.58705 7.23343 5.46379 7.57476 5.21016C7.91373 4.96128 8.07965 4.55357 8.07965 3.98942C8.07965 3.67653 8.02514 3.42053 7.9161 3.21905C7.80232 3.01757 7.65062 2.86113 7.46099 2.75209C7.27136 2.63831 7.05802 2.56009 6.81151 2.51742C6.56736 2.47002 6.31373 2.45105 6.05299 2.45105H3.28914V5.58468H6.27817L6.2758 5.58705ZM6.43936 11.2973C6.73091 11.2973 7.00825 11.2712 7.26662 11.2119C7.52973 11.1551 7.76439 11.0626 7.96351 10.9275C8.16025 10.7971 8.3238 10.6193 8.44232 10.3918C8.56084 10.1666 8.61773 9.87505 8.61773 9.52187C8.61773 8.82972 8.42336 8.33905 8.03699 8.04039C7.65062 7.74646 7.13388 7.5995 6.49625 7.5995H3.28439V11.2925H6.43699L6.43936 11.2973Z" fill="black"/>
<path d="M15.776 11.2524C16.1742 11.6435 16.7526 11.8379 17.5016 11.8379C18.0397 11.8379 18.5043 11.7028 18.8954 11.4302C19.2817 11.16 19.5164 10.8708 19.6088 10.5697H21.9579C21.581 11.7383 21.0074 12.5727 20.2251 13.0752C19.4524 13.5801 18.5114 13.8314 17.4139 13.8314C16.6483 13.8314 15.9608 13.7081 15.3422 13.464C14.7235 13.2175 14.2091 12.8714 13.773 12.421C13.3487 11.9683 13.0216 11.4326 12.7869 10.802C12.5546 10.1763 12.4385 9.48175 12.4385 8.73271C12.4385 7.98368 12.5594 7.32708 12.7964 6.7013C13.0382 6.07316 13.3724 5.53034 13.8133 5.07286C14.2542 4.61538 14.778 4.25508 15.3872 3.9896C15.9964 3.72649 16.6696 3.59375 17.4139 3.59375C18.2364 3.59375 18.9546 3.75256 19.5733 4.07493C20.1872 4.39256 20.6921 4.82397 21.088 5.36205C21.4838 5.90012 21.7659 6.51405 21.9413 7.2062C22.1167 7.8936 22.176 8.61419 22.1262 9.36797H15.117C15.117 10.136 15.3777 10.8637 15.7783 11.2524H15.776ZM18.8408 6.14901C18.5232 5.79819 17.9875 5.60856 17.3309 5.60856C16.9043 5.60856 16.5511 5.67968 16.269 5.82664C15.994 5.97123 15.7665 6.15138 15.5934 6.36234C15.4204 6.57805 15.3043 6.80323 15.2355 7.04738C15.1668 7.28205 15.1265 7.49775 15.1146 7.68738H19.4548C19.3908 7.00708 19.1585 6.50456 18.8408 6.15138V6.14901Z" fill="black"/>
<path d="M20.007 1.06641H14.5693V2.39144H20.007V1.06641Z" fill="black"/>
</svg>
