<svg width="34" height="33" viewBox="0 0 34 33" fill="none" xmlns="http://www.w3.org/2000/svg">
<path d="M7 31.5C9.76142 31.5 12 29.2614 12 26.5C12 23.7386 9.76142 21.5 7 21.5C4.23858 21.5 2 23.7386 2 26.5C2 29.2614 4.23858 31.5 7 31.5Z" stroke="white" stroke-width="3" stroke-linecap="round" stroke-linejoin="round"/>
<path d="M12 26.4997V4.83301" stroke="white" stroke-width="3" stroke-linecap="round" stroke-linejoin="round"/>
<path d="M32 1.5L12 4.83333M32 8.16667L12 11.5" stroke="white" stroke-width="3" stroke-linecap="round"/>
<path d="M27 28.167C29.7614 28.167 32 25.9284 32 23.167C32 20.4056 29.7614 18.167 27 18.167C24.2386 18.167 22 20.4056 22 23.167C22 25.9284 24.2386 28.167 27 28.167Z" stroke="white" stroke-width="3" stroke-linecap="round" stroke-linejoin="round"/>
<path d="M32 23.1667V1.5" stroke="white" stroke-width="3" stroke-linecap="round" stroke-linejoin="round"/>
</svg>
