<svg width="22" height="22" viewBox="0 0 22 22" fill="none" xmlns="http://www.w3.org/2000/svg">
<path d="M11.0003 2.74148C13.6906 2.74148 14.0083 2.75097 15.0702 2.80074C16.0515 2.84578 16.5849 3.00934 16.9404 3.14682C17.4098 3.32934 17.7463 3.54741 18.0995 3.9006C18.4527 4.25378 18.6708 4.588 18.8533 5.05971C18.9908 5.41526 19.1543 5.9486 19.1994 6.92993C19.2468 7.99186 19.2586 8.31186 19.2586 10.9999C19.2586 13.6879 19.2492 14.0079 19.1994 15.0698C19.1543 16.0511 18.9908 16.5844 18.8533 16.94C18.6708 17.4093 18.4527 17.7459 18.0995 18.0991C17.7463 18.4523 17.4121 18.6704 16.9404 18.8529C16.5849 18.9904 16.0515 19.1539 15.0702 19.199C14.0083 19.2464 13.6906 19.2582 11.0003 19.2582C8.3099 19.2582 7.99227 19.2487 6.93035 19.199C5.94901 19.1539 5.41568 18.9904 5.06012 18.8529C4.59079 18.6704 4.2542 18.4523 3.90101 18.0991C3.54783 17.7459 3.32975 17.4117 3.14724 16.94C3.00975 16.5844 2.8462 16.0511 2.80116 15.0698C2.75375 14.0079 2.7419 13.6879 2.7419 10.9999C2.7419 8.31186 2.75138 7.99186 2.80116 6.92993C2.8462 5.9486 3.00975 5.41526 3.14724 5.05971C3.32975 4.59037 3.54783 4.25378 3.90101 3.9006C4.2542 3.54741 4.58842 3.32934 5.06012 3.14682C5.41568 3.00934 5.94901 2.84578 6.93035 2.80074C7.99227 2.75334 8.31227 2.74148 11.0003 2.74148ZM11.0003 0.925781C8.26487 0.925781 7.92116 0.937633 6.84738 0.987411C5.77598 1.03719 5.04353 1.20548 4.40116 1.45674C3.73983 1.71511 3.17805 2.05882 2.61627 2.61823C2.05687 3.17763 1.71079 3.73941 1.45479 4.40311C1.2059 5.04311 1.03524 5.77556 0.985458 6.84934C0.93568 7.92311 0.923828 8.26682 0.923828 11.0022C0.923828 13.7376 0.93568 14.0813 0.985458 15.1551C1.03524 16.2265 1.20353 16.959 1.45479 17.6013C1.71316 18.2627 2.05687 18.8244 2.61627 19.3862C3.17568 19.9456 3.73746 20.2917 4.40116 20.5477C5.04116 20.7966 5.77361 20.9673 6.84738 21.017C7.92116 21.0668 8.26487 21.0787 11.0003 21.0787C13.7357 21.0787 14.0794 21.0668 15.1532 21.017C16.2246 20.9673 16.957 20.799 17.5994 20.5477C18.2607 20.2893 18.8225 19.9456 19.3843 19.3862C19.9437 18.8268 20.2898 18.265 20.5458 17.6013C20.7946 16.9613 20.9653 16.2289 21.0151 15.1551C21.0649 14.0813 21.0767 13.7376 21.0767 11.0022C21.0767 8.26682 21.0649 7.92311 21.0151 6.84934C20.9653 5.77793 20.797 5.04548 20.5458 4.40311C20.2874 3.74178 19.9437 3.18 19.3843 2.61823C18.8249 2.05882 18.2631 1.71274 17.5994 1.45674C16.9594 1.20786 16.2269 1.03719 15.1532 0.987411C14.0794 0.937633 13.7357 0.925781 11.0003 0.925781Z" fill="black"/>
<path d="M11.0003 5.82812C8.14398 5.82812 5.82812 8.14398 5.82812 11.0003C5.82812 13.8566 8.14398 16.1724 11.0003 16.1724C13.8566 16.1724 16.1724 13.8566 16.1724 11.0003C16.1724 8.14398 13.8566 5.82812 11.0003 5.82812ZM11.0003 14.3591C9.14664 14.3591 7.64146 12.8563 7.64146 11.0003C7.64146 9.14427 9.14427 7.64146 11.0003 7.64146C12.8563 7.64146 14.3591 9.14427 14.3591 11.0003C14.3591 12.8563 12.8563 14.3591 11.0003 14.3591Z" fill="black"/>
<path d="M16.3788 6.82989C17.0465 6.82989 17.5877 6.28865 17.5877 5.621C17.5877 4.95335 17.0465 4.41211 16.3788 4.41211C15.7112 4.41211 15.1699 4.95335 15.1699 5.621C15.1699 6.28865 15.7112 6.82989 16.3788 6.82989Z" fill="black"/>
</svg>
