<svg width="20" height="20" viewBox="0 0 20 20" fill="none" xmlns="http://www.w3.org/2000/svg">
<path d="M11.2368 8.81772C11.4999 8.52142 11.7156 8.22275 11.9858 7.96912C12.8155 7.1869 13.7968 6.79342 14.9441 6.8029C15.5746 6.80764 16.1956 6.85268 16.8024 7.02809C18.1915 7.42868 18.9974 8.38631 19.3838 9.74216C19.673 10.759 19.7251 11.8044 19.7275 12.8521C19.7322 15.0613 19.7204 17.2728 19.7275 19.482C19.7275 19.6882 19.6706 19.7428 19.4667 19.7428C18.329 19.7333 17.1888 19.7333 16.051 19.7428C15.8495 19.7428 15.8069 19.6835 15.8069 19.4939C15.814 17.3913 15.814 15.2888 15.8069 13.1839C15.8069 12.6577 15.7713 12.1291 15.6244 11.6171C15.3518 10.6737 14.6762 10.1925 13.6878 10.2447C12.3367 10.3158 11.635 10.9842 11.4644 12.3567C11.4241 12.6838 11.4027 13.0133 11.4051 13.3428C11.4051 15.3884 11.4051 17.434 11.4098 19.4796C11.4098 19.6835 11.3601 19.7428 11.1515 19.7428C10.0042 19.7333 8.85695 19.7333 7.70969 19.7428C7.5248 19.7428 7.47266 19.6953 7.47266 19.5081C7.4774 15.4595 7.4774 11.4085 7.47266 7.35994C7.47266 7.15846 7.53903 7.11342 7.72866 7.11342C8.81666 7.12053 9.90703 7.1229 10.995 7.11342C11.1965 7.11342 11.2463 7.17742 11.2439 7.36705C11.2321 7.8506 11.2392 8.33416 11.2392 8.82009L11.2368 8.81772Z" fill="black"/>
<path d="M4.99787 13.444C4.99787 15.4469 4.9955 17.4499 5.00261 19.4529C5.00261 19.6757 4.9481 19.7421 4.71817 19.7397C3.58039 19.7278 2.44261 19.7302 1.30247 19.7397C1.11995 19.7397 1.06543 19.6946 1.06543 19.5074C1.07017 15.4517 1.07017 11.396 1.06543 7.33791C1.06543 7.16961 1.10573 7.11035 1.2835 7.11035C2.43787 7.11746 3.59224 7.11983 4.74661 7.11035C4.96943 7.11035 4.99787 7.19331 4.99787 7.38531C4.99313 9.40487 4.9955 11.4244 4.9955 13.444H4.99787Z" fill="black"/>
<path d="M5.31341 3.09281C5.31341 4.35147 4.29415 5.37547 3.03785 5.37547C1.79815 5.37547 0.769405 4.35147 0.764665 3.11177C0.759924 1.86021 1.78866 0.829102 3.04259 0.829102C4.28704 0.829102 5.31103 1.85073 5.31341 3.09044V3.09281Z" fill="black"/>
</svg>
