<svg width="64" height="31" viewBox="0 0 64 31" fill="none" xmlns="http://www.w3.org/2000/svg">
<path d="M21.0909 15.5H42.9091M19.4545 2H11.8182C11.3842 2 10.968 2.17068 10.6611 2.47449C10.3542 2.7783 10.1818 3.19035 10.1818 3.62V27.38C10.1818 27.5927 10.2241 27.8034 10.3064 27.9999C10.3886 28.1965 10.5091 28.3751 10.6611 28.5255C10.813 28.6759 10.9934 28.7953 11.192 28.8767C11.3905 28.9581 11.6033 29 11.8182 29H19.4545C19.6694 29 19.8822 28.9581 20.0808 28.8767C20.2793 28.7953 20.4597 28.6759 20.6116 28.5255C20.7636 28.3751 20.8841 28.1965 20.9663 27.9999C21.0486 27.8034 21.0909 27.5927 21.0909 27.38V3.62C21.0909 3.19035 20.9185 2.7783 20.6116 2.47449C20.3048 2.17068 19.8885 2 19.4545 2ZM52.1818 2H44.5455C44.1115 2 43.6952 2.17068 43.3884 2.47449C43.0815 2.7783 42.9091 3.19035 42.9091 3.62V27.38C42.9091 27.5927 42.9514 27.8034 43.0336 27.9999C43.1159 28.1965 43.2364 28.3751 43.3884 28.5255C43.5403 28.6759 43.7207 28.7953 43.9192 28.8767C44.1178 28.9581 44.3306 29 44.5455 29H52.1818C52.3967 29 52.6095 28.9581 52.808 28.8767C53.0066 28.7953 53.187 28.6759 53.3389 28.5255C53.4909 28.3751 53.6114 28.1965 53.6936 27.9999C53.7759 27.8034 53.8182 27.5927 53.8182 27.38V3.62C53.8182 3.19035 53.6458 2.7783 53.3389 2.47449C53.032 2.17068 52.6158 2 52.1818 2ZM2 21.98V9.02C2 8.59035 2.1724 8.17829 2.47928 7.87449C2.78616 7.57068 3.20237 7.4 3.63636 7.4H8.54545C8.97945 7.4 9.39566 7.57068 9.70254 7.87449C10.0094 8.17829 10.1818 8.59035 10.1818 9.02V21.98C10.1818 22.4097 10.0094 22.8217 9.70254 23.1255C9.39566 23.4293 8.97945 23.6 8.54545 23.6H3.63636C3.20237 23.6 2.78616 23.4293 2.47928 23.1255C2.1724 22.8217 2 22.4097 2 21.98ZM62 21.98V9.02C62 8.59035 61.8276 8.17829 61.5207 7.87449C61.2138 7.57068 60.7976 7.4 60.3636 7.4H55.4545C55.0206 7.4 54.6043 7.57068 54.2975 7.87449C53.9906 8.17829 53.8182 8.59035 53.8182 9.02V21.98C53.8182 22.4097 53.9906 22.8217 54.2975 23.1255C54.6043 23.4293 55.0206 23.6 55.4545 23.6H60.3636C60.7976 23.6 61.2138 23.4293 61.5207 23.1255C61.8276 22.8217 62 22.4097 62 21.98Z" stroke="white" stroke-width="3" stroke-linecap="round" stroke-linejoin="round"/>
</svg>
