<svg width="61" height="43" viewBox="0 0 61 43" fill="none" xmlns="http://www.w3.org/2000/svg">
<g clip-path="url(#clip0_1219_1382)">
<path d="M43.0924 20.1939C43.0924 22.1544 43.1432 23.9318 43.0822 25.7048C42.9166 30.5478 43.3698 35.349 43.9683 40.1429C44.0279 40.619 44.0773 41.0965 44.1194 41.5755C44.1732 42.1713 43.8913 42.4814 43.2885 42.4987C43.1911 42.5016 43.0953 42.4987 42.9979 42.4987C34.6943 42.4987 26.3922 42.4987 18.0886 42.4987C16.9759 42.4987 16.8378 42.3328 16.9483 41.2364C17.2853 37.8924 17.7458 34.5541 17.9099 31.2013C18.0755 27.8197 17.9448 24.4237 17.9419 21.0349C17.9419 20.8056 17.9186 20.5762 17.9056 20.3468C17.8068 20.2703 17.7095 20.1953 17.6107 20.1189C17.5046 20.3367 17.4465 20.6007 17.2853 20.7652C14.5295 23.5682 11.7607 26.3598 8.99331 29.1513C8.21612 29.9347 7.97933 29.9231 7.24717 29.1196C4.97371 26.6252 2.69589 24.1338 0.423878 21.6394C-0.14703 21.0119 -0.142672 20.768 0.445669 20.1867C5.62887 15.0681 10.8295 9.96978 15.9764 4.81517C16.7333 4.05634 17.5584 3.72308 18.5549 3.56006C20.1994 3.29029 21.838 2.98733 23.4694 2.65696C23.6989 2.6108 23.9793 2.37132 24.0679 2.15492C24.5313 1.00224 25.3637 0.491538 26.5985 0.500194C29.1886 0.520391 31.7788 0.523277 34.3689 0.500194C35.6328 0.488653 36.487 0.990697 36.9475 2.18521C37.0288 2.39584 37.3281 2.61368 37.5605 2.65985C39.4548 3.0335 41.3622 3.33934 43.2507 3.73174C43.7141 3.8284 44.2138 4.07798 44.548 4.4069C49.9026 9.66105 55.234 14.9383 60.5697 20.2112C61.1319 20.7666 61.1391 21.0104 60.5987 21.6062C58.2962 24.1395 55.9923 26.6714 53.6854 29.1989C53.0244 29.9231 52.7571 29.9159 52.0409 29.1931C49.275 26.4002 46.5091 23.6057 43.7417 20.8142C43.5761 20.6469 43.4018 20.4911 43.0909 20.1968L43.0924 20.1939ZM8.18561 28.1083C8.44564 27.8082 8.63595 27.5601 8.8553 27.3393C11.858 24.304 14.8593 21.2672 17.8852 18.2549C18.1191 18.0227 18.6072 17.7991 18.8542 17.8928C19.0866 17.9808 19.2769 18.4915 19.2813 18.8176C19.3147 21.462 19.3002 24.1063 19.3031 26.7522C19.3031 27.0032 19.3249 27.2542 19.3379 27.5399C21.7785 27.5399 24.1245 27.5024 26.4706 27.5557C27.7548 27.5846 28.9765 27.4735 30.1009 26.8171C30.7067 26.4636 31.2791 26.4983 31.8616 26.8777C33.4697 27.9265 35.2565 27.4317 37.1087 27.5485C33.3579 18.9359 29.6666 10.4574 25.939 1.89524C25.2664 2.51847 25.1458 3.07245 25.4668 3.79666C26.6929 6.56367 27.8812 9.34655 29.084 12.1251C29.6273 13.3817 30.2012 14.6267 30.6893 15.9049C30.7837 16.153 30.6123 16.5786 30.4278 16.8195C30.3464 16.9263 29.8845 16.8469 29.6724 16.7214C29.4952 16.6175 29.4138 16.3304 29.3194 16.1126C27.6459 12.2578 25.9695 8.40306 24.3178 4.53818C24.1202 4.07509 23.9212 3.94958 23.404 4.05778C21.7015 4.41267 19.9815 4.67668 18.2775 5.02436C17.9041 5.10082 17.5017 5.30712 17.2315 5.57257C13.01 9.70721 8.81172 13.8649 4.60037 18.0097C3.62416 18.9705 2.62325 19.9039 1.60056 20.882C3.83916 23.3374 5.97752 25.6817 8.18997 28.1083H8.18561ZM59.3364 20.9585C59.1853 20.7897 59.1112 20.6974 59.0269 20.6137C53.9164 15.5644 48.8072 10.5137 43.6821 5.47879C43.4454 5.24653 43.072 5.09072 42.7379 5.0258C41.0106 4.68389 39.2718 4.40257 37.5445 4.05489C37.1087 3.96689 36.9547 4.06355 36.8196 4.46894C35.6778 7.9039 34.5098 11.3316 33.368 14.7666C33.2939 14.9888 33.2939 15.2932 33.3855 15.5052C35.0532 19.3889 36.7383 23.2638 38.4292 27.1374C38.496 27.2903 38.6587 27.511 38.7837 27.5153C39.7366 27.5471 40.6911 27.5327 41.6789 27.5327C41.6789 24.5565 41.6658 21.6986 41.6978 18.8407C41.7021 18.5088 41.9084 17.9505 42.1132 17.9044C42.4212 17.8351 42.9035 18.0342 43.1519 18.2795C45.2627 20.3627 47.3313 22.4877 49.4232 24.5882C50.5563 25.7264 51.7112 26.8431 52.898 28.0102C55.0466 25.6558 57.1704 23.3302 59.3349 20.957L59.3364 20.9585ZM35.1374 31.8274C35.3088 32.0828 35.4062 32.2415 35.5195 32.3915C36.6613 33.9121 37.7958 35.4384 38.9536 36.9474C39.3444 37.4567 39.2994 37.8534 38.7909 38.2299C38.3464 38.5603 37.9121 38.9051 37.4762 39.2484C36.686 39.8688 36.4216 39.8371 35.8274 39.0551C34.3428 37.0989 32.8494 35.1499 31.3778 33.185C31.0408 32.7349 30.7474 32.7248 30.4002 33.133C30.2752 33.2802 30.1518 33.4273 30.0312 33.5774C28.5189 35.4514 27.0125 37.3297 25.4944 39.198C24.9991 39.8082 24.7332 39.8284 24.1013 39.3494C23.6394 39.0003 23.1847 38.6425 22.7358 38.2775C22.1068 37.764 22.0763 37.5418 22.5731 36.894C23.7454 35.3663 24.9293 33.8472 26.106 32.3208C26.2135 32.1809 26.2963 32.0222 26.4125 31.8404H19.3002C18.9893 34.9436 18.6842 37.9933 18.3762 41.072H42.6333C42.3195 37.9501 42.013 34.9017 41.7021 31.826H35.1418L35.1374 31.8274ZM30.8796 9.78945C31.834 7.04984 32.7259 4.49346 33.6266 1.90678H27.4498C28.593 4.53386 29.6971 7.07148 30.8796 9.78945ZM32.4369 13.1797C33.5612 9.84138 34.6609 6.62426 35.717 3.39272C35.887 2.87048 35.6386 2.3843 35.1011 2.00344C34.9936 2.27033 34.8992 2.4824 34.8222 2.6988C33.9012 5.32587 33.0354 7.97314 32.0388 10.5699C31.6713 11.5264 31.8398 12.2679 32.4383 13.1797H32.4369ZM41.6513 28.9335C39.0669 28.9335 36.5552 28.919 34.0435 28.9566C33.798 28.9594 33.5583 29.2783 33.3244 29.4442C33.7593 30.0789 34.3084 30.3968 34.9718 30.3978C36.4724 30.3978 37.9716 30.3978 39.4722 30.3978C40.1899 30.3978 40.9075 30.3978 41.6527 30.3978V28.9349L41.6513 28.9335ZM19.335 30.3458H27.2725V28.9724H19.335V30.3458ZM31.7599 31.4235C33.4479 33.6452 35.1011 35.8221 36.7775 38.0265C37.0564 37.813 37.299 37.6269 37.5852 37.4062C35.8638 35.1311 34.1743 32.8979 32.4441 30.6098C32.2044 30.8955 32.0069 31.1292 31.7599 31.422V31.4235ZM29.2119 32.4059C28.5591 32.0395 28.0265 32.1203 27.6139 32.6483C27.4512 32.856 27.2783 33.0566 27.1171 33.2658C26.0508 34.6464 24.9874 36.027 23.8979 37.4408C24.1841 37.6601 24.4035 37.8289 24.6664 38.0294C26.1903 36.1453 27.6822 34.2987 29.2133 32.4059H29.2119ZM29.8685 28.4747C28.7586 28.7979 28.6381 28.9811 28.6337 29.9621C28.6308 30.7873 29.209 30.8883 29.8685 31.0513V28.4747ZM31.3982 28.1948C31.3386 28.7344 31.2878 29.196 31.2355 29.6577C31.2863 29.6707 31.3386 29.6837 31.3895 29.6966C31.6698 29.3475 31.9517 28.9998 32.2858 28.5843C31.9676 28.4444 31.7178 28.3348 31.3967 28.1948H31.3982Z" fill="white"/>
</g>
<defs>
<clipPath id="clip0_1219_1382">
<rect width="61" height="42" fill="white" transform="translate(0 0.5)"/>
</clipPath>
</defs>
</svg>
