<svg width="42" height="31" viewBox="0 0 42 31" fill="none" xmlns="http://www.w3.org/2000/svg">
<path d="M7.5 0.5C5.51088 0.5 3.60322 1.29018 2.1967 2.6967C0.790176 4.10322 0 6.01088 0 8V23C0 24.9891 0.790176 26.8968 2.1967 28.3033C3.60322 29.7098 5.51088 30.5 7.5 30.5H22.5C24.4891 30.5 26.3968 29.7098 27.8033 28.3033C29.2098 26.8968 30 24.9891 30 23V22.619L36.105 26.834C36.6677 27.2223 37.3258 27.4494 38.0082 27.4908C38.6906 27.5321 39.3714 27.3861 39.9768 27.0686C40.5822 26.751 41.0894 26.274 41.4433 25.6891C41.7973 25.1042 41.9846 24.4337 41.985 23.75V7.256C41.9846 6.57234 41.7973 5.9018 41.4433 5.31689C41.0894 4.73198 40.5822 4.25497 39.9768 3.93742C39.3714 3.61987 38.6906 3.47388 38.0082 3.51522C37.3258 3.55657 36.6677 3.78368 36.105 4.172L30 8.387V8C30 6.01088 29.2098 4.10322 27.8033 2.6967C26.3968 1.29018 24.4891 0.5 22.5 0.5H7.5ZM30 12.032L37.812 6.638C37.9246 6.56028 38.0564 6.51485 38.1929 6.50663C38.3295 6.49841 38.4658 6.52771 38.5869 6.59136C38.708 6.65502 38.8094 6.7506 38.8801 6.86775C38.9508 6.9849 38.9881 7.11916 38.988 7.256V23.75C38.9876 23.8866 38.9499 24.0205 38.879 24.1372C38.808 24.2539 38.7066 24.349 38.5856 24.4123C38.4645 24.4756 38.3285 24.5047 38.1922 24.4963C38.0559 24.488 37.9244 24.4426 37.812 24.365L30 18.974V12.032ZM3 8C3 6.80653 3.47411 5.66193 4.31802 4.81802C5.16193 3.97411 6.30653 3.5 7.5 3.5H22.5C23.6935 3.5 24.8381 3.97411 25.682 4.81802C26.5259 5.66193 27 6.80653 27 8V23C27 24.1935 26.5259 25.3381 25.682 26.182C24.8381 27.0259 23.6935 27.5 22.5 27.5H7.5C6.30653 27.5 5.16193 27.0259 4.31802 26.182C3.47411 25.3381 3 24.1935 3 23V8Z" fill="white"/>
</svg>
