<svg width="23" height="26" viewBox="0 0 23 26" fill="none" xmlns="http://www.w3.org/2000/svg">
<path d="M8.84323 0C9.05645 0 9.26093 0.0846997 9.4117 0.235466C9.56246 0.386232 9.64716 0.590715 9.64716 0.80393V4.01965C9.64716 4.23287 9.56246 4.43735 9.4117 4.58812C9.26093 4.73888 9.05645 4.82358 8.84323 4.82358C8.63002 4.82358 8.42553 4.73888 8.27477 4.58812C8.124 4.43735 8.0393 4.23287 8.0393 4.01965V0.80393C8.0393 0.590715 8.124 0.386232 8.27477 0.235466C8.42553 0.0846997 8.63002 0 8.84323 0ZM2.58866 2.58866C2.66333 2.51379 2.75205 2.45439 2.84972 2.41386C2.94739 2.37333 3.05209 2.35247 3.15784 2.35247C3.26358 2.35247 3.36829 2.37333 3.46596 2.41386C3.56363 2.45439 3.65234 2.51379 3.72702 2.58866L6.00054 4.86378C6.07732 4.93794 6.13856 5.02665 6.1807 5.12473C6.22283 5.22281 6.24501 5.32831 6.24594 5.43505C6.24686 5.5418 6.22652 5.64766 6.1861 5.74646C6.14568 5.84526 6.08598 5.93502 6.0105 6.0105C5.93502 6.08598 5.84526 6.14568 5.74646 6.1861C5.64766 6.22652 5.5418 6.24686 5.43505 6.24594C5.3283 6.24501 5.22281 6.22283 5.12473 6.1807C5.02665 6.13856 4.93794 6.07732 4.86378 6.00054L2.59026 3.72702C2.43955 3.57626 2.35488 3.37182 2.35488 3.15864C2.35488 2.94547 2.43955 2.74102 2.59026 2.59026L2.58866 2.58866ZM15.0978 2.58866C15.1727 2.66333 15.2321 2.75205 15.2726 2.84972C15.3131 2.94739 15.334 3.05209 15.334 3.15784C15.334 3.26358 15.3131 3.36829 15.2726 3.46596C15.2321 3.56363 15.1727 3.65234 15.0978 3.72702L12.8211 6.00054C12.7469 6.07732 12.6582 6.13856 12.5601 6.1807C12.462 6.22283 12.3566 6.24501 12.2498 6.24594C12.1431 6.24686 12.0372 6.22652 11.9384 6.1861C11.8396 6.14568 11.7498 6.08598 11.6744 6.0105C11.5989 5.93502 11.5392 5.84526 11.4988 5.74646C11.4583 5.64766 11.438 5.5418 11.4389 5.43505C11.4398 5.32831 11.462 5.22281 11.5042 5.12473C11.5463 5.02665 11.6075 4.93794 11.6843 4.86378L13.9578 2.59026C14.1086 2.43955 14.313 2.35488 14.5262 2.35488C14.7394 2.35488 14.9438 2.43955 15.0946 2.59026L15.0978 2.58866ZM0 8.84323C0 8.63002 0.0846997 8.42554 0.235466 8.27477C0.386232 8.124 0.590715 8.0393 0.80393 8.0393H4.01965C4.23287 8.0393 4.43735 8.124 4.58812 8.27477C4.73888 8.42554 4.82358 8.63002 4.82358 8.84323C4.82358 9.05645 4.73888 9.26093 4.58812 9.4117C4.43735 9.56246 4.23287 9.64716 4.01965 9.64716H0.80393C0.590715 9.64716 0.386232 9.56246 0.235466 9.4117C0.0846997 9.26093 0 9.05645 0 8.84323ZM10.6762 8.52166C10.4415 8.32622 10.1561 8.20164 9.85323 8.1625C9.55037 8.12336 9.24263 8.17128 8.96601 8.30065C8.68938 8.43002 8.45532 8.6355 8.29121 8.89303C8.1271 9.15057 8.03972 9.44951 8.0393 9.75489V24.388C8.0393 25.8737 9.8803 26.5651 10.8579 25.4476L14.1154 21.7238C14.342 21.4654 14.6212 21.2585 14.9342 21.1168C15.2473 20.9751 15.587 20.9019 15.9307 20.9022H21.0935C22.5969 20.9022 23.2786 19.021 22.1226 18.0595L10.6762 8.52005V8.52166ZM9.64716 24.3912V9.75489L21.0935 19.2943H15.9307C15.3576 19.2943 14.7911 19.4167 14.2692 19.6536C13.7473 19.8904 13.282 20.2361 12.9047 20.6674L9.64716 24.3912Z" fill="black"/>
</svg>
